<?xml version="1.0" standalone="no"?>
<!DOCTYPE svg PUBLIC "-//W3C//DTD SVG 20010904//EN"
 "http://www.w3.org/TR/2001/REC-SVG-20010904/DTD/svg10.dtd">
<svg version="1.0" xmlns="http://www.w3.org/2000/svg"
 width="576.000000pt" height="576.000000pt" viewBox="0 0 576.000000 576.000000"
 preserveAspectRatio="xMidYMid meet">
<metadata>
Created by potrace 1.14, written by Peter Selinger 2001-2017
</metadata>
<g transform="translate(0.000000,576.000000) scale(0.100000,-0.100000)"
fill="#000000" stroke="none">
<path d="M1144 4975 c-133 -30 -232 -83 -333 -179 -164 -157 -264 -371 -318
-676 -14 -85 -18 -156 -17 -370 0 -233 3 -277 22 -361 25 -115 69 -250 146
-452 83 -217 98 -279 98 -427 2 -243 -52 -412 -165 -516 -86 -80 -182 -121
-324 -139 -73 -9 -83 -25 -48 -75 47 -68 252 -258 338 -314 184 -120 341 -183
577 -231 280 -58 648 -60 995 -5 57 9 68 7 157 -25 182 -65 290 -80 568 -80
214 0 259 3 356 22 272 56 470 158 637 332 192 199 298 436 332 741 7 63 23
122 24 90 1 -8 6 -32 12 -52 8 -30 15 -38 33 -38 33 0 36 15 17 90 -15 59 -18
65 -42 65 l-26 -1 -6 136 c-7 168 -35 301 -92 444 -25 61 -43 112 -41 114 3 2
39 -4 82 -14 107 -23 104 -28 104 200 -1 410 -82 707 -264 965 -195 276 -498
470 -841 540 -340 70 -740 46 -1058 -61 -76 -26 -91 -28 -98 -16 -28 50 -105
142 -141 169 -67 49 -196 108 -273 124 -88 18 -326 18 -411 0z m1964 -1408
c235 -182 399 -291 541 -361 l110 -54 -69 -7 c-74 -7 -93 -20 -88 -57 3 -22 7
-23 123 -29 160 -9 174 -14 207 -75 75 -137 118 -339 117 -548 -1 -139 -1
-140 -16 -98 -12 35 -19 43 -37 40 -15 -2 -22 -11 -24 -33 -4 -48 21 -118 44
-125 20 -5 20 -7 7 -85 -56 -331 -256 -616 -530 -754 -185 -93 -384 -134 -653
-134 -307 0 -525 52 -732 177 -128 76 -268 244 -373 448 -41 79 -62 109 -78
113 -12 3 -44 10 -72 15 -108 24 -203 102 -253 209 -37 80 -37 203 0 282 56
122 113 161 378 254 255 90 624 260 782 362 40 25 106 78 147 117 79 76 237
261 311 363 25 34 46 63 48 63 2 0 51 -37 110 -83z"/>
<path d="M3000 3141 c-60 -8 -187 -47 -207 -64 -17 -13 -16 -52 1 -67 12 -9
31 -6 93 16 63 22 100 29 193 32 117 4 140 11 140 42 0 10 -6 22 -12 28 -18
14 -142 22 -208 13z"/>
<path d="M2986 3000 c-37 -12 -85 -56 -102 -97 -45 -104 27 -221 141 -231 71
-6 119 18 156 77 86 134 -41 297 -195 251z"/>
<path d="M3702 2989 c-60 -30 -86 -70 -90 -144 -3 -50 0 -65 20 -94 33 -49 69
-72 121 -78 60 -7 110 11 146 52 77 88 54 210 -49 263 -55 28 -93 28 -148 1z"/>
<path d="M3432 2588 c-21 -21 -13 -48 21 -67 100 -60 122 -91 121 -176 -2 -80
-39 -134 -114 -165 -18 -7 -33 -22 -36 -36 -7 -26 10 -54 31 -54 28 0 102 39
134 71 53 53 73 110 69 200 -4 99 -39 159 -118 207 -57 34 -88 40 -108 20z"/>
<path d="M1535 2470 c-22 -25 -17 -85 17 -185 19 -57 28 -72 50 -79 41 -14 78
14 78 59 0 44 -34 170 -55 201 -19 30 -65 32 -90 4z"/>
<path d="M2585 2326 c-21 -70 -17 -100 12 -104 19 -3 24 5 38 52 21 70 17 100
-12 104 -19 3 -24 -5 -38 -52z"/>
<path d="M2702 2363 c-15 -30 -34 -121 -27 -133 9 -14 40 -13 52 3 15 18 36
115 29 132 -8 21 -43 19 -54 -2z"/>
<path d="M2813 2368 c-15 -19 -36 -116 -29 -133 8 -21 43 -19 54 3 16 30 32
110 26 126 -7 19 -38 21 -51 4z"/>
<path d="M3022 1688 c-53 -53 74 -111 243 -111 173 0 302 61 239 114 -13 10
-30 9 -99 -9 -103 -27 -180 -28 -276 -2 -88 23 -92 23 -107 8z"/>
</g>
</svg>
